<mxfile host="app.diagrams.net" modified="2022-04-26T09:04:45.084Z" agent="5.0 (Windows NT 10.0; Win64; x64) AppleWebKit/537.36 (KHTML, like Gecko) Chrome/100.0.4896.127 Safari/537.36 Edg/100.0.1185.50" etag="qXbXA5eSu7hdb1wGzu2_" version="17.4.6" type="github">
  <diagram id="AanMKN7VLscFwEzpLC6N" name="Page-1">
    <mxGraphModel dx="1038" dy="579" grid="1" gridSize="10" guides="1" tooltips="1" connect="1" arrows="1" fold="1" page="1" pageScale="1" pageWidth="850" pageHeight="1100" math="0" shadow="0">
      <root>
        <mxCell id="0" />
        <mxCell id="1" parent="0" />
        <mxCell id="YiFwv83zEUwOLo2XGyvS-3" value="" style="edgeStyle=orthogonalEdgeStyle;rounded=0;orthogonalLoop=1;jettySize=auto;html=1;" edge="1" parent="1" source="YiFwv83zEUwOLo2XGyvS-1" target="YiFwv83zEUwOLo2XGyvS-2">
          <mxGeometry relative="1" as="geometry" />
        </mxCell>
        <mxCell id="YiFwv83zEUwOLo2XGyvS-1" value="start" style="rounded=1;whiteSpace=wrap;html=1;" vertex="1" parent="1">
          <mxGeometry x="305" y="20" width="95" height="30" as="geometry" />
        </mxCell>
        <mxCell id="YiFwv83zEUwOLo2XGyvS-7" value="" style="edgeStyle=orthogonalEdgeStyle;rounded=0;orthogonalLoop=1;jettySize=auto;html=1;" edge="1" parent="1" source="YiFwv83zEUwOLo2XGyvS-2" target="YiFwv83zEUwOLo2XGyvS-6">
          <mxGeometry relative="1" as="geometry" />
        </mxCell>
        <mxCell id="YiFwv83zEUwOLo2XGyvS-2" value="agent position search against player zone" style="whiteSpace=wrap;html=1;rounded=1;" vertex="1" parent="1">
          <mxGeometry x="292.5" y="110" width="120" height="60" as="geometry" />
        </mxCell>
        <mxCell id="YiFwv83zEUwOLo2XGyvS-9" value="yes" style="edgeStyle=orthogonalEdgeStyle;rounded=0;orthogonalLoop=1;jettySize=auto;html=1;" edge="1" parent="1" source="YiFwv83zEUwOLo2XGyvS-6" target="YiFwv83zEUwOLo2XGyvS-8">
          <mxGeometry relative="1" as="geometry" />
        </mxCell>
        <mxCell id="YiFwv83zEUwOLo2XGyvS-11" value="else" style="edgeStyle=orthogonalEdgeStyle;rounded=0;orthogonalLoop=1;jettySize=auto;html=1;" edge="1" parent="1" source="YiFwv83zEUwOLo2XGyvS-6" target="YiFwv83zEUwOLo2XGyvS-10">
          <mxGeometry relative="1" as="geometry" />
        </mxCell>
        <mxCell id="YiFwv83zEUwOLo2XGyvS-6" value="IF got the zone" style="rhombus;whiteSpace=wrap;html=1;rounded=1;" vertex="1" parent="1">
          <mxGeometry x="312.5" y="190" width="80" height="80" as="geometry" />
        </mxCell>
        <mxCell id="YiFwv83zEUwOLo2XGyvS-13" value="" style="edgeStyle=orthogonalEdgeStyle;rounded=0;orthogonalLoop=1;jettySize=auto;html=1;" edge="1" parent="1" source="YiFwv83zEUwOLo2XGyvS-8" target="YiFwv83zEUwOLo2XGyvS-12">
          <mxGeometry relative="1" as="geometry" />
        </mxCell>
        <mxCell id="YiFwv83zEUwOLo2XGyvS-8" value="return the zone property" style="whiteSpace=wrap;html=1;rounded=1;" vertex="1" parent="1">
          <mxGeometry x="292.5" y="320" width="120" height="60" as="geometry" />
        </mxCell>
        <mxCell id="YiFwv83zEUwOLo2XGyvS-14" style="edgeStyle=orthogonalEdgeStyle;rounded=0;orthogonalLoop=1;jettySize=auto;html=1;entryX=1;entryY=0.5;entryDx=0;entryDy=0;exitX=0.5;exitY=1;exitDx=0;exitDy=0;" edge="1" parent="1" source="YiFwv83zEUwOLo2XGyvS-10" target="YiFwv83zEUwOLo2XGyvS-12">
          <mxGeometry relative="1" as="geometry" />
        </mxCell>
        <mxCell id="YiFwv83zEUwOLo2XGyvS-10" value="return false" style="whiteSpace=wrap;html=1;rounded=1;" vertex="1" parent="1">
          <mxGeometry x="452.5" y="200" width="120" height="60" as="geometry" />
        </mxCell>
        <mxCell id="YiFwv83zEUwOLo2XGyvS-12" value="end" style="ellipse;whiteSpace=wrap;html=1;rounded=1;" vertex="1" parent="1">
          <mxGeometry x="302.5" y="410" width="97.5" height="30" as="geometry" />
        </mxCell>
      </root>
    </mxGraphModel>
  </diagram>
</mxfile>
